<svg xmlns="http://www.w3.org/2000/svg" xmlns:xlink="http://www.w3.org/1999/xlink" width="1890" zoomAndPan="magnify" viewBox="0 0 1417.5 749.999995" height="1000" preserveAspectRatio="xMidYMid meet" version="1.0"><defs><clipPath id="5655697703"><path d="M 28 0.132812 L 325 0.132812 L 325 156 L 28 156 Z M 28 0.132812 " clip-rule="nonzero"/></clipPath><clipPath id="07464a8ced"><path d="M 142 0.132812 L 174 0.132812 L 174 21 L 142 21 Z M 142 0.132812 " clip-rule="nonzero"/></clipPath><clipPath id="13c295b465"><path d="M 309 0.132812 L 424 0.132812 L 424 104 L 309 104 Z M 309 0.132812 " clip-rule="nonzero"/></clipPath><clipPath id="3f8ca8a508"><path d="M 430 0.132812 L 503 0.132812 L 503 94 L 430 94 Z M 430 0.132812 " clip-rule="nonzero"/></clipPath><clipPath id="b5bad2945a"><path d="M 639 0.132812 L 663 0.132812 L 663 119 L 639 119 Z M 639 0.132812 " clip-rule="nonzero"/></clipPath><clipPath id="ee2df71106"><path d="M 853 0.132812 L 882 0.132812 L 882 59 L 853 59 Z M 853 0.132812 " clip-rule="nonzero"/></clipPath><clipPath id="d034107002"><path d="M 911 0.132812 L 1174 0.132812 L 1174 208 L 911 208 Z M 911 0.132812 " clip-rule="nonzero"/></clipPath><clipPath id="d56e3eb47a"><path d="M 1094 0.132812 L 1400 0.132812 L 1400 159 L 1094 159 Z M 1094 0.132812 " clip-rule="nonzero"/></clipPath><clipPath id="8492162ce3"><path d="M 1288 2 L 1417 2 L 1417 98 L 1288 98 Z M 1288 2 " clip-rule="nonzero"/></clipPath><clipPath id="46478ba6f6"><path d="M 1300 80 L 1417 80 L 1417 153 L 1300 153 Z M 1300 80 " clip-rule="nonzero"/></clipPath><clipPath id="644530031b"><path d="M 1091 145 L 1417 145 L 1417 269 L 1091 269 Z M 1091 145 " clip-rule="nonzero"/></clipPath><clipPath id="f6d296d638"><path d="M 1277 220 L 1417 220 L 1417 266 L 1277 266 Z M 1277 220 " clip-rule="nonzero"/></clipPath><clipPath id="356b930a93"><path d="M 1059 283 L 1417 283 L 1417 340 L 1059 340 Z M 1059 283 " clip-rule="nonzero"/></clipPath><clipPath id="14ab1d80c0"><path d="M 1181 350 L 1417 350 L 1417 372 L 1181 372 Z M 1181 350 " clip-rule="nonzero"/></clipPath><clipPath id="55b50c8ea8"><path d="M 1305 378 L 1417 378 L 1417 393 L 1305 393 Z M 1305 378 " clip-rule="nonzero"/></clipPath><clipPath id="0c601036b1"><path d="M 1227 416 L 1417 416 L 1417 445 L 1227 445 Z M 1227 416 " clip-rule="nonzero"/></clipPath><clipPath id="3a6b6cc0c2"><path d="M 1237 471 L 1417 471 L 1417 524 L 1237 524 Z M 1237 471 " clip-rule="nonzero"/></clipPath><clipPath id="a13a10fd2e"><path d="M 1248 522 L 1417 522 L 1417 592 L 1248 592 Z M 1248 522 " clip-rule="nonzero"/></clipPath><clipPath id="e37684bc79"><path d="M 957 464 L 1417 464 L 1417 665 L 957 665 Z M 957 464 " clip-rule="nonzero"/></clipPath><clipPath id="398519aa94"><path d="M 1348 668 L 1417 668 L 1417 731 L 1348 731 Z M 1348 668 " clip-rule="nonzero"/></clipPath><clipPath id="e9b5f1933f"><path d="M 1092.25 594 L 1389 594 L 1389 749.328125 L 1092.25 749.328125 Z M 1092.25 594 " clip-rule="nonzero"/></clipPath><clipPath id="668a4b9f3c"><path d="M 1243 729 L 1274.949219 729 L 1274.949219 749.328125 L 1243 749.328125 Z M 1243 729 " clip-rule="nonzero"/></clipPath><clipPath id="f379f10efd"><path d="M 993 647 L 1107.472656 647 L 1107.472656 749.328125 L 993 749.328125 Z M 993 647 " clip-rule="nonzero"/></clipPath><clipPath id="c41fa4a97e"><path d="M 914 656 L 987 656 L 987 749.328125 L 914 749.328125 Z M 914 656 " clip-rule="nonzero"/></clipPath><clipPath id="72aa5f5fbe"><path d="M 755 631.425781 L 778 631.425781 L 778 749.328125 L 755 749.328125 Z M 755 631.425781 " clip-rule="nonzero"/></clipPath><clipPath id="0bcc0f75ff"><path d="M 536 691 L 565 691 L 565 749.328125 L 536 749.328125 Z M 536 691 " clip-rule="nonzero"/></clipPath><clipPath id="b4e5765e36"><path d="M 243 542 L 506 542 L 506 749.328125 L 243 749.328125 Z M 243 542 " clip-rule="nonzero"/></clipPath><clipPath id="8eddb0f9a2"><path d="M 17 592 L 324 592 L 324 749.328125 L 17 749.328125 Z M 17 592 " clip-rule="nonzero"/></clipPath></defs><path fill="#000000" d="M -52.671875 358.253906 L -52.671875 371.339844 C 2.199219 369.425781 57.066406 367.988281 111.9375 367.011719 C 57.066406 364.558594 2.1875 361.644531 -52.671875 358.253906 " fill-opacity="1" fill-rule="nonzero"/><path fill="#000000" d="M -52.671875 306.015625 L -52.671875 324.800781 C 28.28125 326.988281 109.164062 330.140625 190.035156 334.292969 C 109.046875 325.871094 28.140625 316.4375 -52.671875 306.015625 " fill-opacity="1" fill-rule="nonzero"/><path fill="#000000" d="M -52.671875 225.148438 L -52.671875 248.550781 L 311.957031 303.359375 Z M -52.671875 225.148438 " fill-opacity="1" fill-rule="nonzero"/><path fill="#000000" d="M 26.582031 184.210938 C 0.128906 175.8125 -26.277344 167.304688 -52.671875 158.691406 L -52.671875 177.023438 C 21.183594 193.207031 94.832031 210.207031 168.246094 228.015625 C 120.929688 213.75 73.695312 199.152344 26.582031 184.210938 " fill-opacity="1" fill-rule="nonzero"/><path fill="#000000" d="M -52.671875 85.90625 L -52.671875 119.585938 C 119.179688 171.800781 289.914062 227.316406 459.398438 286.109375 C 287.382812 222.78125 116.695312 156.039062 -52.671875 85.90625 " fill-opacity="1" fill-rule="nonzero"/><path fill="#000000" d="M -52.671875 19.507812 L -52.671875 33.285156 C -12.085938 49.308594 28.367188 65.609375 68.675781 82.203125 C 28.070312 61.621094 -12.371094 40.71875 -52.671875 19.507812 " fill-opacity="1" fill-rule="nonzero"/><g clip-path="url(#5655697703)"><path fill="#000000" d="M 233.761719 106.972656 C 264.078125 123.058594 294.304688 139.300781 324.445312 155.679688 C 240.933594 105.355469 158.136719 53.757812 76.097656 0.96875 L 28.210938 0.96875 C 66.476562 20.148438 104.597656 39.566406 142.589844 59.207031 C 173.0625 74.984375 203.441406 90.890625 233.761719 106.972656 " fill-opacity="1" fill-rule="nonzero"/></g><g clip-path="url(#07464a8ced)"><path fill="#000000" d="M 146.859375 0.96875 L 142.410156 0.96875 C 152.9375 7.429688 163.453125 13.890625 173.96875 20.386719 C 164.914062 13.9375 155.875 7.453125 146.859375 0.96875 " fill-opacity="1" fill-rule="nonzero"/></g><g clip-path="url(#13c295b465)"><path fill="#000000" d="M 322.136719 0.96875 L 309.789062 0.96875 C 347.890625 34.710938 385.714844 68.75 423.265625 103.085938 C 389.292969 69.308594 355.585938 35.269531 322.136719 0.96875 " fill-opacity="1" fill-rule="nonzero"/></g><g clip-path="url(#3f8ca8a508)"><path fill="#000000" d="M 437.503906 0.96875 L 430.578125 0.96875 C 454.714844 31.796875 478.65625 62.765625 502.398438 93.863281 C 480.574219 63.027344 458.949219 32.058594 437.503906 0.96875 " fill-opacity="1" fill-rule="nonzero"/></g><g clip-path="url(#b5bad2945a)"><path fill="#000000" d="M 642.847656 0.96875 L 639.363281 0.96875 C 647.121094 40.148438 654.707031 79.359375 662.117188 118.609375 C 655.515625 79.433594 649.105469 40.21875 642.847656 0.96875 " fill-opacity="1" fill-rule="nonzero"/></g><g clip-path="url(#ee2df71106)"><path fill="#000000" d="M 881.027344 0.96875 L 878.015625 0.96875 C 869.761719 20.253906 861.433594 39.515625 853.050781 58.742188 C 862.316406 39.457031 871.640625 20.195312 881.027344 0.96875 " fill-opacity="1" fill-rule="nonzero"/></g><g clip-path="url(#d034107002)"><path fill="#000000" d="M 1142.207031 24.96875 C 1152.542969 16.949219 1162.890625 8.953125 1173.25 0.96875 L 1151.316406 0.96875 C 1072.207031 70.820312 992.285156 139.761719 911.59375 207.765625 C 987.777344 146.042969 1064.6875 85.070312 1142.207031 24.96875 " fill-opacity="1" fill-rule="nonzero"/></g><g clip-path="url(#d56e3eb47a)"><path fill="#000000" d="M 1399.816406 0.96875 L 1349.539062 0.96875 C 1265.183594 54.613281 1180.042969 106.972656 1094.128906 158.039062 C 1195.039062 103.964844 1296.953125 51.605469 1399.816406 0.96875 " fill-opacity="1" fill-rule="nonzero"/></g><g clip-path="url(#8492162ce3)"><path fill="#000000" d="M 1385.652344 55.078125 C 1413.652344 43.109375 1441.710938 31.285156 1469.828125 19.578125 L 1469.828125 9.535156 C 1469.828125 6.5625 1468.269531 3.933594 1465.914062 2.398438 C 1407.0625 34.640625 1347.886719 66.261719 1288.402344 97.265625 C 1320.730469 83.023438 1353.15625 68.964844 1385.652344 55.078125 " fill-opacity="1" fill-rule="nonzero"/></g><g clip-path="url(#46478ba6f6)"><path fill="#000000" d="M 1469.828125 97.125 L 1469.828125 80.417969 C 1413.496094 105.09375 1356.902344 129.234375 1300.105469 152.777344 C 1356.472656 133.695312 1413.054688 115.160156 1469.828125 97.125 " fill-opacity="1" fill-rule="nonzero"/></g><g clip-path="url(#644530031b)"><path fill="#000000" d="M 1469.828125 178.988281 L 1469.828125 145.425781 C 1344.390625 188.96875 1218.105469 229.894531 1091.058594 268.15625 C 1216.605469 235.902344 1342.890625 206.171875 1469.828125 178.988281 " fill-opacity="1" fill-rule="nonzero"/></g><g clip-path="url(#f6d296d638)"><path fill="#000000" d="M 1469.828125 236.355469 L 1469.828125 220.59375 C 1405.753906 236.214844 1341.5 251.191406 1277.136719 265.503906 C 1341.238281 255.152344 1405.480469 245.445312 1469.828125 236.355469 " fill-opacity="1" fill-rule="nonzero"/></g><g clip-path="url(#356b930a93)"><path fill="#000000" d="M 1469.828125 315.09375 L 1469.828125 283.300781 C 1333.375 304.980469 1196.574219 323.835938 1059.457031 339.824219 C 1195.96875 328.785156 1332.816406 320.539062 1469.828125 315.09375 " fill-opacity="1" fill-rule="nonzero"/></g><g clip-path="url(#14ab1d80c0)"><path fill="#000000" d="M 1469.828125 371.617188 L 1469.828125 350.378906 C 1373.898438 357.003906 1277.910156 362.3125 1181.800781 366.285156 C 1277.804688 366.75 1373.816406 368.523438 1469.828125 371.617188 " fill-opacity="1" fill-rule="nonzero"/></g><g clip-path="url(#55b50c8ea8)"><path fill="#000000" d="M 1305.21875 383.285156 C 1360.089844 385.738281 1414.972656 388.652344 1469.828125 392.03125 L 1469.828125 378.957031 C 1414.957031 380.859375 1360.089844 382.3125 1305.21875 383.285156 " fill-opacity="1" fill-rule="nonzero"/></g><g clip-path="url(#0c601036b1)"><path fill="#000000" d="M 1469.828125 444.285156 L 1469.828125 425.496094 C 1388.875 423.308594 1308.003906 420.15625 1227.121094 416.003906 C 1308.109375 424.425781 1389.015625 433.863281 1469.828125 444.285156 " fill-opacity="1" fill-rule="nonzero"/></g><g clip-path="url(#3a6b6cc0c2)"><path fill="#000000" d="M 1469.828125 523.136719 L 1469.828125 504.007812 C 1392.382812 494.109375 1315.09375 483.292969 1237.886719 471.527344 C 1315.378906 487.78125 1392.703125 504.984375 1469.828125 523.136719 " fill-opacity="1" fill-rule="nonzero"/></g><g clip-path="url(#a13a10fd2e)"><path fill="#000000" d="M 1390.574219 566.085938 C 1417.027344 574.472656 1443.445312 582.992188 1469.828125 591.605469 L 1469.828125 573.273438 C 1395.976562 557.09375 1322.335938 540.089844 1248.910156 522.28125 C 1296.226562 536.546875 1343.460938 551.144531 1390.574219 566.085938 " fill-opacity="1" fill-rule="nonzero"/></g><g clip-path="url(#e37684bc79)"><path fill="#000000" d="M 1469.828125 664.394531 L 1469.828125 630.699219 C 1297.976562 578.496094 1127.242188 522.984375 957.757812 464.1875 C 1129.777344 527.515625 1300.460938 594.257812 1469.828125 664.394531 " fill-opacity="1" fill-rule="nonzero"/></g><g clip-path="url(#398519aa94)"><path fill="#000000" d="M 1469.828125 730.78125 L 1469.828125 717.015625 C 1429.246094 700.988281 1388.789062 684.691406 1348.480469 668.09375 C 1389.078125 688.675781 1429.53125 709.578125 1469.828125 730.78125 " fill-opacity="1" fill-rule="nonzero"/></g><g clip-path="url(#e9b5f1933f)"><path fill="#000000" d="M 1183.394531 643.324219 C 1153.078125 627.238281 1122.851562 611 1092.710938 594.617188 C 1176.222656 644.941406 1259.023438 696.539062 1341.058594 749.328125 L 1388.945312 749.328125 C 1350.679688 730.148438 1312.558594 710.734375 1274.566406 691.089844 C 1244.09375 675.316406 1213.714844 659.394531 1183.394531 643.324219 " fill-opacity="1" fill-rule="nonzero"/></g><g clip-path="url(#668a4b9f3c)"><path fill="#000000" d="M 1270.296875 749.328125 L 1274.757812 749.328125 C 1264.21875 742.867188 1253.691406 736.40625 1243.191406 729.910156 C 1252.242188 736.359375 1261.28125 742.832031 1270.296875 749.328125 " fill-opacity="1" fill-rule="nonzero"/></g><g clip-path="url(#f379f10efd)"><path fill="#000000" d="M 1095.019531 749.328125 L 1107.367188 749.328125 C 1069.269531 715.585938 1031.445312 681.550781 993.894531 647.214844 C 1027.863281 680.988281 1061.574219 715.027344 1095.019531 749.328125 " fill-opacity="1" fill-rule="nonzero"/></g><g clip-path="url(#c41fa4a97e)"><path fill="#000000" d="M 979.65625 749.328125 L 986.578125 749.328125 C 962.445312 718.5 938.5 687.535156 914.757812 656.433594 C 936.585938 687.273438 958.210938 718.238281 979.65625 749.328125 " fill-opacity="1" fill-rule="nonzero"/></g><g clip-path="url(#72aa5f5fbe)"><path fill="#000000" d="M 774.308594 749.328125 L 777.792969 749.328125 C 770.039062 710.148438 762.449219 670.9375 755.039062 631.6875 C 761.640625 670.867188 768.050781 710.078125 774.308594 749.328125 " fill-opacity="1" fill-rule="nonzero"/></g><g clip-path="url(#0bcc0f75ff)"><path fill="#000000" d="M 536.132812 749.328125 L 539.140625 749.328125 C 547.394531 730.042969 555.722656 710.78125 564.097656 691.554688 C 554.839844 710.839844 545.515625 730.089844 536.132812 749.328125 " fill-opacity="1" fill-rule="nonzero"/></g><g clip-path="url(#b4e5765e36)"><path fill="#000000" d="M 274.953125 725.332031 C 264.617188 733.347656 254.265625 741.34375 243.90625 749.328125 L 265.839844 749.328125 C 344.949219 679.480469 424.871094 610.535156 505.5625 542.53125 C 429.378906 604.253906 352.46875 665.226562 274.953125 725.332031 " fill-opacity="1" fill-rule="nonzero"/></g><g clip-path="url(#8eddb0f9a2)"><path fill="#000000" d="M 17.339844 749.328125 L 67.617188 749.328125 C 151.972656 695.683594 237.113281 643.324219 323.027344 592.261719 C 222.117188 646.332031 120.203125 698.679688 17.339844 749.328125 " fill-opacity="1" fill-rule="nonzero"/></g><path fill="#000000" d="M 31.507812 695.21875 C 3.507812 707.1875 -24.550781 719.011719 -52.671875 730.71875 L -52.671875 740.761719 C -52.671875 743.734375 -51.113281 746.363281 -48.757812 747.898438 C 10.097656 715.660156 69.269531 684.035156 128.757812 653.03125 C 96.425781 667.273438 64.003906 681.335938 31.507812 695.21875 " fill-opacity="1" fill-rule="nonzero"/><path fill="#000000" d="M -52.671875 653.175781 L -52.671875 669.867188 C 3.660156 645.203125 60.253906 621.074219 117.050781 597.519531 C 60.683594 616.601562 4.101562 635.136719 -52.671875 653.175781 " fill-opacity="1" fill-rule="nonzero"/><path fill="#000000" d="M -52.671875 571.308594 L -52.671875 604.871094 C 72.769531 561.328125 199.050781 520.402344 326.085938 482.140625 C 200.550781 514.394531 74.265625 544.113281 -52.671875 571.308594 " fill-opacity="1" fill-rule="nonzero"/><path fill="#000000" d="M -52.671875 513.941406 L -52.671875 529.707031 C 11.40625 514.085938 75.660156 499.105469 140.019531 484.792969 C 75.910156 495.144531 11.679688 504.851562 -52.671875 513.941406 " fill-opacity="1" fill-rule="nonzero"/><path fill="#000000" d="M -52.671875 435.207031 L -52.671875 466.996094 C 83.78125 445.320312 220.582031 426.460938 357.703125 410.460938 C 221.1875 421.511719 84.355469 429.757812 -52.671875 435.207031 " fill-opacity="1" fill-rule="nonzero"/><path fill="#000000" d="M -52.671875 387.960938 L -52.671875 400.5 C 51.023438 394.421875 161.929688 390.414062 259.191406 386.378906 C 162 385.914062 51.132812 388.84375 -52.671875 387.960938 " fill-opacity="1" fill-rule="nonzero"/></svg>