<svg xmlns="http://www.w3.org/2000/svg" xmlns:xlink="http://www.w3.org/1999/xlink" width="1890" zoomAndPan="magnify" viewBox="0 0 1417.5 299.999988" height="400" preserveAspectRatio="xMidYMid meet" version="1.0"><defs><clipPath id="05faa043b4"><path d="M 20 78 L 1362 78 L 1362 291.804688 L 20 291.804688 Z M 20 78 " clip-rule="nonzero"/></clipPath></defs><path fill="#48c2c5" d="M 1389.554688 237.164062 C 1177.128906 217.921875 964.265625 208.296875 750.972656 208.296875 C 537.675781 208.296875 324.816406 217.921875 112.390625 237.164062 C 85.695312 237.164062 37.167969 69.734375 63.859375 69.734375 C 116.707031 62.046875 169.679688 55.320312 222.773438 49.546875 C 275.867188 43.773438 329.046875 38.960938 382.316406 35.105469 C 435.582031 31.253906 488.902344 28.363281 542.273438 26.4375 C 595.644531 24.507812 649.035156 23.542969 702.441406 23.542969 C 755.847656 23.542969 809.238281 24.507812 862.609375 26.4375 C 915.980469 28.363281 969.300781 31.253906 1022.566406 35.105469 C 1075.832031 38.960938 1129.015625 43.773438 1182.105469 49.546875 C 1235.199219 55.320312 1288.171875 62.046875 1341.023438 69.734375 C 1367.714844 69.734375 1416.246094 237.164062 1389.554688 237.164062 Z M 1389.554688 237.164062 " fill-opacity="0.698" fill-rule="nonzero"/><g clip-path="url(#05faa043b4)"><path fill="#48c2c5" d="M 1353.804688 291.804688 C 1141.378906 272.558594 928.515625 262.933594 715.222656 262.933594 C 501.925781 262.933594 289.0625 272.558594 76.636719 291.804688 C 49.945312 291.804688 1.414062 124.371094 28.105469 124.371094 C 80.957031 116.6875 133.929688 109.957031 187.023438 104.183594 C 240.117188 98.410156 293.296875 93.597656 346.566406 89.746094 C 399.832031 85.890625 453.152344 83 506.523438 81.074219 C 559.894531 79.144531 613.285156 78.183594 666.691406 78.183594 C 720.097656 78.183594 773.484375 79.144531 826.855469 81.074219 C 880.230469 83 933.546875 85.890625 986.816406 89.746094 C 1040.082031 93.597656 1093.261719 98.410156 1146.355469 104.183594 C 1199.449219 109.957031 1252.421875 116.6875 1305.273438 124.371094 C 1331.964844 124.371094 1380.496094 291.804688 1353.804688 291.804688 Z M 1353.804688 291.804688 " fill-opacity="0.698" fill-rule="nonzero"/></g></svg>